solid tubularVersatileBlock_6_10_1_2_3_fixed
	facet normal -0.99965732497555726 -0.026176948307873933 0. 
		outer loop
			vertex 1. 0. 0.61237243569579447 
			vertex 0.99862953475457383 0.052335956242943828 0.61237243569579447 
			vertex 0.99862953475457383 0.052335956242943828 -0.61237243569579447 
		endloop
	endfacet
	facet normal 0.99965732497555726 0.026176948307873933 0. 
		outer loop
			vertex 1. 0. 0.61237243569579447 
			vertex 1. 0. -0.61237243569579447 
			vertex 0.99862953475457383 0.052335956242943828 -0.61237243569579447 
		endloop
	endfacet
	facet normal -0.99691733373312785 -0.078459095727845082 0. 
		outer loop
			vertex 0.99862953475457383 0.052335956242943828 0.61237243569579447 
			vertex 0.99452189536827329 0.10452846326765346 0.61237243569579447 
			vertex 0.99452189536827329 0.10452846326765346 -0.61237243569579447 
		endloop
	endfacet
	facet normal 0.99691733373312785 0.078459095727845082 0. 
		outer loop
			vertex 0.99862953475457383 0.052335956242943828 0.61237243569579447 
			vertex 0.99862953475457383 0.052335956242943828 -0.61237243569579447 
			vertex 0.99452189536827329 0.10452846326765346 -0.61237243569579447 
		endloop
	endfacet
	facet normal -0.9914448613738106 -0.13052619222004985 0. 
		outer loop
			vertex 0.99452189536827329 0.10452846326765346 0.61237243569579447 
			vertex 0.98768834059513777 0.15643446504023087 0.61237243569579447 
			vertex 0.98768834059513777 0.15643446504023087 -0.61237243569579447 
		endloop
	endfacet
	facet normal 0.9914448613738106 0.13052619222004985 0. 
		outer loop
			vertex 0.99452189536827329 0.10452846326765346 0.61237243569579447 
			vertex 0.99452189536827329 0.10452846326765346 -0.61237243569579447 
			vertex 0.98768834059513777 0.15643446504023087 -0.61237243569579447 
		endloop
	endfacet
	facet normal -0.98325490756395451 -0.18223552549214742 0. 
		outer loop
			vertex 0.98768834059513777 0.15643446504023087 0.61237243569579447 
			vertex 0.97814760073380569 0.20791169081775931 0.61237243569579447 
			vertex 0.97814760073380569 0.20791169081775931 -0.61237243569579447 
		endloop
	endfacet
	facet normal 0.98325490756395451 0.18223552549214742 0. 
		outer loop
			vertex 0.98768834059513777 0.15643446504023087 0.61237243569579447 
			vertex 0.98768834059513777 0.15643446504023087 -0.61237243569579447 
			vertex 0.97814760073380569 0.20791169081775931 -0.61237243569579447 
		endloop
	endfacet
	facet normal -0.97236992039767656 -0.23344536385590589 0. 
		outer loop
			vertex 0.97814760073380569 0.20791169081775931 0.61237243569579447 
			vertex 0.96592582628906831 0.25881904510252074 0.61237243569579447 
			vertex 0.96592582628906831 0.25881904510252074 -0.61237243569579447 
		endloop
	endfacet
	facet normal 0.97236992039767656 0.23344536385590589 0. 
		outer loop
			vertex 0.97814760073380569 0.20791169081775931 0.61237243569579447 
			vertex 0.97814760073380569 0.20791169081775931 -0.61237243569579447 
			vertex 0.96592582628906831 0.25881904510252074 -0.61237243569579447 
		endloop
	endfacet
	facet normal -0.95881973486819261 -0.28401534470392376 0. 
		outer loop
			vertex 0.96592582628906831 0.25881904510252074 0.61237243569579447 
			vertex 0.95105651629515353 0.3090169943749474 0.61237243569579447 
			vertex 0.95105651629515353 0.3090169943749474 -0.61237243569579447 
		endloop
	endfacet
	facet normal 0.95881973486819261 0.28401534470392376 0. 
		outer loop
			vertex 0.96592582628906831 0.25881904510252074 0.61237243569579447 
			vertex 0.96592582628906831 0.25881904510252074 -0.61237243569579447 
			vertex 0.95105651629515353 0.3090169943749474 -0.61237243569579447 
		endloop
	endfacet
	facet normal -0.94264149109217854 -0.33380685923377051 0. 
		outer loop
			vertex 0.95105651629515353 0.3090169943749474 0.61237243569579447 
			vertex 0.93358042649720174 0.35836794954530021 0.61237243569579447 
			vertex 0.93358042649720174 0.35836794954530021 -0.61237243569579447 
		endloop
	endfacet
	facet normal 0.94264149109217854 0.33380685923377051 0. 
		outer loop
			vertex 0.95105651629515353 0.3090169943749474 0.61237243569579447 
			vertex 0.95105651629515353 0.3090169943749474 -0.61237243569579447 
			vertex 0.93358042649720174 0.35836794954530021 -0.61237243569579447 
		endloop
	endfacet
	facet normal -0.92387953251128652 -0.38268343236509011 0. 
		outer loop
			vertex 0.93358042649720174 0.35836794954530021 0.61237243569579447 
			vertex 0.91354545764260087 0.40673664307580015 0.61237243569579447 
			vertex 0.91354545764260087 0.40673664307580015 -0.61237243569579447 
		endloop
	endfacet
	facet normal 0.92387953251128652 0.38268343236509011 0. 
		outer loop
			vertex 0.93358042649720174 0.35836794954530021 0.61237243569579447 
			vertex 0.93358042649720174 0.35836794954530021 -0.61237243569579447 
			vertex 0.91354545764260087 0.40673664307580015 -0.61237243569579447 
		endloop
	endfacet
	facet normal -0.90258528434986107 -0.43051109680829408 0. 
		outer loop
			vertex 0.91354545764260087 0.40673664307580015 0.61237243569579447 
			vertex 0.8910065241883679 0.45399049973954675 0.61237243569579447 
			vertex 0.8910065241883679 0.45399049973954675 -0.61237243569579447 
		endloop
	endfacet
	facet normal 0.90258528434986107 0.43051109680829408 0. 
		outer loop
			vertex 0.91354545764260087 0.40673664307580015 0.61237243569579447 
			vertex 0.91354545764260087 0.40673664307580015 -0.61237243569579447 
			vertex 0.8910065241883679 0.45399049973954675 -0.61237243569579447 
		endloop
	endfacet
	facet normal -0.87881711266196549 -0.47715876025960813 0. 
		outer loop
			vertex 0.8910065241883679 0.45399049973954675 0.61237243569579447 
			vertex 0.86602540378443871 0.49999999999999994 0.61237243569579447 
			vertex 0.86602540378443871 0.49999999999999994 0. 
		endloop
	endfacet
	facet normal 0.87881711266196549 0.47715876025960813 0. 
		outer loop
			vertex 0.86602540378443871 0.49999999999999994 0. 
			vertex 0.8910065241883679 0.45399049973954675 -0.61237243569579447 
			vertex 0.86602540378443871 0.49999999999999994 -0.61237243569579447 
		endloop
	endfacet
	facet normal -0.87881711266196549 -0.47715876025960813 -0. 
		outer loop
			vertex 0.8910065241883679 0.45399049973954675 0.61237243569579447 
			vertex 0.86602540378443871 0.49999999999999994 0. 
			vertex 0.8910065241883679 0.45399049973954675 -0.61237243569579447 
		endloop
	endfacet
	facet normal 0.43825116360949318 -0.32082211823832973 -0.83964819183036221 
		outer loop
			vertex 1.7320508075688774 0.99999999999999989 -0.61237243569579447 
			vertex 1.7820130483767358 0.9079809994790935 -0.55113519212621509 
			vertex 1. 0. -0.61237243569579447 
		endloop
	endfacet
	facet normal 0.4454546790889008 -0.3274562801323066 -0.8332721725101091 
		outer loop
			vertex 1.7820130483767358 0.9079809994790935 -0.55113519212621509 
			vertex 1.8270909152852017 0.81347328615160031 -0.4898979485566356 
			vertex 1. 0. -0.61237243569579447 
		endloop
	endfacet
	facet normal 0.45244009882685216 -0.33561870331656329 -0.82623122850546926 
		outer loop
			vertex 1.8270909152852017 0.81347328615160031 -0.4898979485566356 
			vertex 1.8671608529944035 0.71673589909060043 -0.42866070498705611 
			vertex 1. 0. -0.61237243569579447 
		endloop
	endfacet
	facet normal 0.4588967936054027 -0.34538371561809306 -0.81861090989829888 
		outer loop
			vertex 1.8671608529944035 0.71673589909060043 -0.42866070498705611 
			vertex 1.9021130325903071 0.61803398874989479 -0.36742346141747673 
			vertex 1. 0. -0.61237243569579447 
		endloop
	endfacet
	facet normal 0.46450994500802106 -0.35678566386994126 -0.81051496040821513 
		outer loop
			vertex 1.9021130325903071 0.61803398874989479 -0.36742346141747673 
			vertex 1.9318516525781366 0.51763809020504148 -0.30618621784789729 
			vertex 1. 0. -0.61237243569579447 
		endloop
	endfacet
	facet normal 0.46897065779639469 -0.36981615309201132 -0.80206142846931805 
		outer loop
			vertex 1.9318516525781366 0.51763809020504148 -0.30618621784789729 
			vertex 1.9562952014676114 0.41582338163551863 -0.2449489742783178 
			vertex 1. 0. -0.61237243569579447 
		endloop
	endfacet
	facet normal 0.47198578688626597 -0.38442318693796057 -0.79337773495467734 
		outer loop
			vertex 1.9562952014676114 0.41582338163551863 -0.2449489742783178 
			vertex 1.9753766811902755 0.31286893008046174 -0.18371173070873836 
			vertex 1. 0. -0.61237243569579447 
		endloop
	endfacet
	facet normal 0.473286832159587 -0.40051225555006303 -0.78459512339712123 
		outer loop
			vertex 1.9753766811902755 0.31286893008046174 -0.18371173070873836 
			vertex 1.9890437907365466 0.20905692653530691 -0.1224744871391589 
			vertex 1. 0. -0.61237243569579447 
		endloop
	endfacet
	facet normal 0.47263738378171127 -0.41794924468654066 -0.77584298174174993 
		outer loop
			vertex 1.9890437907365466 0.20905692653530691 -0.1224744871391589 
			vertex 1.9972590695091477 0.10467191248588766 -0.06123724356957945 
			vertex 1. 0. -0.61237243569579447 
		endloop
	endfacet
	facet normal -0.46983878033606358 0.43656489605995619 0.76724351546329783 
		outer loop
			vertex 2. 0. 0. 
			vertex 1.9972590695091477 0.10467191248588766 -0.06123724356957945 
			vertex 1. 0. -0.61237243569579447 
		endloop
	endfacet
	facet normal 0.46983878033606358 -0.43656489605995619 0.76724351546329783 
		outer loop
			vertex 2. 0. 0. 
			vertex 1.9972590695091477 0.10467191248588766 0.06123724356957945 
			vertex 1. 0. 0.61237243569579447 
		endloop
	endfacet
	facet normal 0.47263738378171127 -0.41794924468654077 0.77584298174175004 
		outer loop
			vertex 1.9972590695091477 0.10467191248588766 0.06123724356957945 
			vertex 1.9890437907365466 0.20905692653530691 0.1224744871391589 
			vertex 1. 0. 0.61237243569579447 
		endloop
	endfacet
	facet normal 0.473286832159587 -0.40051225555006303 0.78459512339712123 
		outer loop
			vertex 1.9890437907365466 0.20905692653530691 0.1224744871391589 
			vertex 1.9753766811902755 0.31286893008046174 0.18371173070873836 
			vertex 1. 0. 0.61237243569579447 
		endloop
	endfacet
	facet normal 0.47198578688626608 -0.38442318693796057 0.79337773495467734 
		outer loop
			vertex 1.9753766811902755 0.31286893008046174 0.18371173070873836 
			vertex 1.9562952014676114 0.41582338163551863 0.2449489742783178 
			vertex 1. 0. 0.61237243569579447 
		endloop
	endfacet
	facet normal 0.46897065779639457 -0.36981615309201132 0.80206142846931805 
		outer loop
			vertex 1.9562952014676114 0.41582338163551863 0.2449489742783178 
			vertex 1.9318516525781366 0.51763809020504148 0.30618621784789729 
			vertex 1. 0. 0.61237243569579447 
		endloop
	endfacet
	facet normal 0.46450994500802101 -0.35678566386994126 0.81051496040821513 
		outer loop
			vertex 1.9318516525781366 0.51763809020504148 0.30618621784789729 
			vertex 1.9021130325903071 0.61803398874989479 0.36742346141747673 
			vertex 1. 0. 0.61237243569579447 
		endloop
	endfacet
	facet normal 0.45889679360540281 -0.34538371561809306 0.81861090989829877 
		outer loop
			vertex 1.9021130325903071 0.61803398874989479 0.36742346141747673 
			vertex 1.8671608529944035 0.71673589909060043 0.42866070498705611 
			vertex 1. 0. 0.61237243569579447 
		endloop
	endfacet
	facet normal 0.45244009882685216 -0.33561870331656329 0.82623122850546937 
		outer loop
			vertex 1.8671608529944035 0.71673589909060043 0.42866070498705611 
			vertex 1.8270909152852017 0.81347328615160031 0.4898979485566356 
			vertex 1. 0. 0.61237243569579447 
		endloop
	endfacet
	facet normal 0.4454546790889008 -0.3274562801323066 0.8332721725101091 
		outer loop
			vertex 1.8270909152852017 0.81347328615160031 0.4898979485566356 
			vertex 1.7820130483767358 0.9079809994790935 0.55113519212621509 
			vertex 1. 0. 0.61237243569579447 
		endloop
	endfacet
	facet normal 0.43825116360949323 -0.32082211823832973 0.83964819183036221 
		outer loop
			vertex 1.7820130483767358 0.9079809994790935 0.55113519212621509 
			vertex 1.7320508075688774 0.99999999999999989 0.61237243569579447 
			vertex 1. 0. 0.61237243569579447 
		endloop
	endfacet
	facet normal 0.49999999999999994 -0.86602540378443871 0. 
		outer loop
			vertex 1.7320508075688774 0.99999999999999989 -0.61237243569579447 
			vertex 0.86602540378443871 0.49999999999999994 0. 
			vertex 0.86602540378443871 0.49999999999999994 -0.61237243569579447 
		endloop
	endfacet
	facet normal 0.49999999999999994 -0.86602540378443871 0. 
		outer loop
			vertex 1.7320508075688774 0.99999999999999989 0.61237243569579447 
			vertex 0.86602540378443871 0.49999999999999994 0.61237243569579447 
			vertex 0.86602540378443871 0.49999999999999994 0. 
		endloop
	endfacet
	facet normal -0.62517476748410583 0.14315690022040348 0.76724351546329772 
		outer loop
			vertex 1.7320508075688774 0.99999999999999989 0.61237243569579447 
			vertex 1.6773411358908481 1.0892780700300539 0.55113519212621498 
			vertex 0.86602540378443871 0.49999999999999994 0. 
		endloop
	endfacet
	facet normal -0.61829060347644738 0.12563597150020644 0.77584298174175026 
		outer loop
			vertex 1.6773411358908481 1.0892780700300539 0.55113519212621498 
			vertex 1.6180339887498949 1.1755705045849463 0.4898979485566356 
			vertex 0.86602540378443871 0.49999999999999994 0. 
		endloop
	endfacet
	facet normal -0.61013454770189546 0.11021037175356579 0.78459512339712134 
		outer loop
			vertex 1.6180339887498949 1.1755705045849463 0.4898979485566356 
			vertex 1.5542919229139418 1.2586407820996748 0.42866070498705611 
			vertex 0.86602540378443871 0.49999999999999994 0. 
		endloop
	endfacet
	facet normal -0.60096327513767522 0.096927352248915591 0.79337773495467689 
		outer loop
			vertex 1.5542919229139418 1.2586407820996748 0.42866070498705611 
			vertex 1.4862896509547887 1.3382612127177163 0.36742346141747667 
			vertex 0.86602540378443871 0.49999999999999994 0. 
		endloop
	endfacet
	facet normal -0.59104857982718184 0.085784854409319225 0.80206142846931838 
		outer loop
			vertex 1.4862896509547887 1.3382612127177163 0.36742346141747667 
			vertex 1.4142135623730951 1.4142135623730949 0.30618621784789718 
			vertex 0.86602540378443871 0.49999999999999994 0. 
		endloop
	endfacet
	facet normal -0.58067024462242955 0.076730476113454502 0.8105149604082148 
		outer loop
			vertex 1.4142135623730951 1.4142135623730949 0.30618621784789718 
			vertex 1.3382612127177165 1.4862896509547883 0.24494897427831774 
			vertex 0.86602540378443871 0.49999999999999994 0. 
		endloop
	endfacet
	facet normal -0.57010813878654953 0.069662674976027322 0.81861090989829888 
		outer loop
			vertex 1.3382612127177165 1.4862896509547883 0.24494897427831774 
			vertex 1.258640782099675 1.5542919229139416 0.18371173070873836 
			vertex 0.86602540378443871 0.49999999999999994 0. 
		endloop
	endfacet
	facet normal -0.55963397093307732 0.064434273643910231 0.82623122850546937 
		outer loop
			vertex 1.258640782099675 1.5542919229139416 0.18371173070873836 
			vertex 1.1755705045849463 1.6180339887498949 0.12247448713915887 
			vertex 0.86602540378443871 0.49999999999999994 0. 
		endloop
	endfacet
	facet normal -0.54950320839178657 0.06085811767888083 0.83327217251010854 
		outer loop
			vertex 1.1755705045849463 1.6180339887498949 0.12247448713915887 
			vertex 1.0892780700300544 1.6773411358908479 0.06123724356957938 
			vertex 0.86602540378443871 0.49999999999999994 0. 
		endloop
	endfacet
	facet normal -0.53994770004307591 0.058714522685581819 0.83964819183036221 
		outer loop
			vertex 1.0892780700300544 1.6773411358908479 0.06123724356957938 
			vertex 1.0000000000000002 1.7320508075688772 0. 
			vertex 0.86602540378443871 0.49999999999999994 0. 
		endloop
	endfacet
	facet normal -0.53994770004307591 0.058714522685581798 -0.83964819183036221 
		outer loop
			vertex 1.0000000000000002 1.7320508075688772 0. 
			vertex 1.0892780700300544 1.6773411358908479 -0.06123724356957938 
			vertex 0.86602540378443871 0.49999999999999994 0. 
		endloop
	endfacet
	facet normal -0.54950320839178657 0.06085811767888083 -0.83327217251010854 
		outer loop
			vertex 1.0892780700300544 1.6773411358908479 -0.06123724356957938 
			vertex 1.1755705045849463 1.6180339887498949 -0.12247448713915887 
			vertex 0.86602540378443871 0.49999999999999994 0. 
		endloop
	endfacet
	facet normal -0.55963397093307743 0.064434273643910245 -0.82623122850546937 
		outer loop
			vertex 1.1755705045849463 1.6180339887498949 -0.12247448713915887 
			vertex 1.258640782099675 1.5542919229139416 -0.18371173070873836 
			vertex 0.86602540378443871 0.49999999999999994 0. 
		endloop
	endfacet
	facet normal -0.57010813878654953 0.069662674976027322 -0.81861090989829899 
		outer loop
			vertex 1.258640782099675 1.5542919229139416 -0.18371173070873836 
			vertex 1.3382612127177165 1.4862896509547883 -0.24494897427831774 
			vertex 0.86602540378443871 0.49999999999999994 0. 
		endloop
	endfacet
	facet normal -0.58067024462242955 0.076730476113454502 -0.8105149604082148 
		outer loop
			vertex 1.3382612127177165 1.4862896509547883 -0.24494897427831774 
			vertex 1.4142135623730951 1.4142135623730949 -0.30618621784789718 
			vertex 0.86602540378443871 0.49999999999999994 0. 
		endloop
	endfacet
	facet normal -0.59104857982718173 0.085784854409319197 -0.80206142846931827 
		outer loop
			vertex 1.4142135623730951 1.4142135623730949 -0.30618621784789718 
			vertex 1.4862896509547887 1.3382612127177163 -0.36742346141747667 
			vertex 0.86602540378443871 0.49999999999999994 0. 
		endloop
	endfacet
	facet normal -0.60096327513767522 0.096927352248915619 -0.79337773495467689 
		outer loop
			vertex 1.4862896509547887 1.3382612127177163 -0.36742346141747667 
			vertex 1.5542919229139418 1.2586407820996748 -0.42866070498705611 
			vertex 0.86602540378443871 0.49999999999999994 0. 
		endloop
	endfacet
	facet normal -0.61013454770189557 0.11021037175356581 -0.78459512339712134 
		outer loop
			vertex 1.5542919229139418 1.2586407820996748 -0.42866070498705611 
			vertex 1.6180339887498949 1.1755705045849463 -0.4898979485566356 
			vertex 0.86602540378443871 0.49999999999999994 0. 
		endloop
	endfacet
	facet normal -0.61829060347644738 0.12563597150020642 -0.77584298174175037 
		outer loop
			vertex 1.6180339887498949 1.1755705045849463 -0.4898979485566356 
			vertex 1.6773411358908481 1.0892780700300539 -0.55113519212621498 
			vertex 0.86602540378443871 0.49999999999999994 0. 
		endloop
	endfacet
	facet normal -0.62517476748410583 0.14315690022040353 -0.76724351546329772 
		outer loop
			vertex 1.6773411358908481 1.0892780700300539 -0.55113519212621498 
			vertex 1.7320508075688774 0.99999999999999989 -0.61237243569579447 
			vertex 0.86602540378443871 0.49999999999999994 0. 
		endloop
	endfacet
	facet normal -0. -1. 0. 
		outer loop
			vertex 2. 0. 0. 
			vertex 1. 0. 0.61237243569579447 
			vertex 1. 0. -0.61237243569579447 
		endloop
	endfacet
	facet normal 0. 0. -1. 
		outer loop
			vertex 1.7320508075688774 0.99999999999999989 0.61237243569579447 
			vertex 1. 0. 0.61237243569579447 
			vertex 0.99862953475457383 0.052335956242943828 0.61237243569579447 
		endloop
	endfacet
	facet normal 0. 0. -1. 
		outer loop
			vertex 1.7320508075688774 0.99999999999999989 0.61237243569579447 
			vertex 0.99862953475457383 0.052335956242943828 0.61237243569579447 
			vertex 0.99452189536827329 0.10452846326765346 0.61237243569579447 
		endloop
	endfacet
	facet normal 0. 0. -1. 
		outer loop
			vertex 1.7320508075688774 0.99999999999999989 0.61237243569579447 
			vertex 0.99452189536827329 0.10452846326765346 0.61237243569579447 
			vertex 0.98768834059513777 0.15643446504023087 0.61237243569579447 
		endloop
	endfacet
	facet normal 0. 0. -1. 
		outer loop
			vertex 1.7320508075688774 0.99999999999999989 0.61237243569579447 
			vertex 0.98768834059513777 0.15643446504023087 0.61237243569579447 
			vertex 0.97814760073380569 0.20791169081775931 0.61237243569579447 
		endloop
	endfacet
	facet normal 0. 0. -1. 
		outer loop
			vertex 1.7320508075688774 0.99999999999999989 0.61237243569579447 
			vertex 0.97814760073380569 0.20791169081775931 0.61237243569579447 
			vertex 0.96592582628906831 0.25881904510252074 0.61237243569579447 
		endloop
	endfacet
	facet normal 0. 0. -1. 
		outer loop
			vertex 1.7320508075688774 0.99999999999999989 0.61237243569579447 
			vertex 0.96592582628906831 0.25881904510252074 0.61237243569579447 
			vertex 0.95105651629515353 0.3090169943749474 0.61237243569579447 
		endloop
	endfacet
	facet normal 0. 0. -1. 
		outer loop
			vertex 1.7320508075688774 0.99999999999999989 0.61237243569579447 
			vertex 0.95105651629515353 0.3090169943749474 0.61237243569579447 
			vertex 0.93358042649720174 0.35836794954530021 0.61237243569579447 
		endloop
	endfacet
	facet normal 0. 0. -1. 
		outer loop
			vertex 1.7320508075688774 0.99999999999999989 0.61237243569579447 
			vertex 0.93358042649720174 0.35836794954530021 0.61237243569579447 
			vertex 0.91354545764260087 0.40673664307580015 0.61237243569579447 
		endloop
	endfacet
	facet normal 0. 0. -1. 
		outer loop
			vertex 1.7320508075688774 0.99999999999999989 0.61237243569579447 
			vertex 0.91354545764260087 0.40673664307580015 0.61237243569579447 
			vertex 0.8910065241883679 0.45399049973954675 0.61237243569579447 
		endloop
	endfacet
	facet normal 0. 0. -1. 
		outer loop
			vertex 1.7320508075688774 0.99999999999999989 0.61237243569579447 
			vertex 0.8910065241883679 0.45399049973954675 0.61237243569579447 
			vertex 0.86602540378443871 0.49999999999999994 0.61237243569579447 
		endloop
	endfacet
	facet normal 0. 0. -1. 
		outer loop
			vertex 1.7320508075688774 0.99999999999999989 -0.61237243569579447 
			vertex 1. 0. -0.61237243569579447 
			vertex 0.99862953475457383 0.052335956242943828 -0.61237243569579447 
		endloop
	endfacet
	facet normal 0. 0. -1. 
		outer loop
			vertex 1.7320508075688774 0.99999999999999989 -0.61237243569579447 
			vertex 0.99862953475457383 0.052335956242943828 -0.61237243569579447 
			vertex 0.99452189536827329 0.10452846326765346 -0.61237243569579447 
		endloop
	endfacet
	facet normal 0. 0. -1. 
		outer loop
			vertex 1.7320508075688774 0.99999999999999989 -0.61237243569579447 
			vertex 0.99452189536827329 0.10452846326765346 -0.61237243569579447 
			vertex 0.98768834059513777 0.15643446504023087 -0.61237243569579447 
		endloop
	endfacet
	facet normal 0. 0. -1. 
		outer loop
			vertex 1.7320508075688774 0.99999999999999989 -0.61237243569579447 
			vertex 0.98768834059513777 0.15643446504023087 -0.61237243569579447 
			vertex 0.97814760073380569 0.20791169081775931 -0.61237243569579447 
		endloop
	endfacet
	facet normal 0. 0. -1. 
		outer loop
			vertex 1.7320508075688774 0.99999999999999989 -0.61237243569579447 
			vertex 0.97814760073380569 0.20791169081775931 -0.61237243569579447 
			vertex 0.96592582628906831 0.25881904510252074 -0.61237243569579447 
		endloop
	endfacet
	facet normal 0. 0. -1. 
		outer loop
			vertex 1.7320508075688774 0.99999999999999989 -0.61237243569579447 
			vertex 0.96592582628906831 0.25881904510252074 -0.61237243569579447 
			vertex 0.95105651629515353 0.3090169943749474 -0.61237243569579447 
		endloop
	endfacet
	facet normal 0. 0. -1. 
		outer loop
			vertex 1.7320508075688774 0.99999999999999989 -0.61237243569579447 
			vertex 0.95105651629515353 0.3090169943749474 -0.61237243569579447 
			vertex 0.93358042649720174 0.35836794954530021 -0.61237243569579447 
		endloop
	endfacet
	facet normal 0. 0. -1. 
		outer loop
			vertex 1.7320508075688774 0.99999999999999989 -0.61237243569579447 
			vertex 0.93358042649720174 0.35836794954530021 -0.61237243569579447 
			vertex 0.91354545764260087 0.40673664307580015 -0.61237243569579447 
		endloop
	endfacet
	facet normal 0. 0. -1. 
		outer loop
			vertex 1.7320508075688774 0.99999999999999989 -0.61237243569579447 
			vertex 0.91354545764260087 0.40673664307580015 -0.61237243569579447 
			vertex 0.8910065241883679 0.45399049973954675 -0.61237243569579447 
		endloop
	endfacet
	facet normal 0. 0. -1. 
		outer loop
			vertex 1.7320508075688774 0.99999999999999989 -0.61237243569579447 
			vertex 0.8910065241883679 0.45399049973954675 -0.61237243569579447 
			vertex 0.86602540378443871 0.49999999999999994 -0.61237243569579447 
		endloop
	endfacet
	facet normal -0.99965732497555726 -0.026176948307873222 0. 
		outer loop
			vertex 3. 0. 0.61237243569579447 
			vertex 2.9958886042637216 0.15700786872883149 0.61237243569579447 
			vertex 2.9958886042637216 0.15700786872883149 -0.61237243569579447 
		endloop
	endfacet
	facet normal 0.99965732497555726 0.026176948307873222 0. 
		outer loop
			vertex 3. 0. 0.61237243569579447 
			vertex 3. 0. -0.61237243569579447 
			vertex 2.9958886042637216 0.15700786872883149 -0.61237243569579447 
		endloop
	endfacet
	facet normal -0.99691733373312785 -0.078459095727847206 0. 
		outer loop
			vertex 2.9958886042637216 0.15700786872883149 0.61237243569579447 
			vertex 2.9835656861048196 0.31358538980296036 0.61237243569579447 
			vertex 2.9835656861048196 0.31358538980296036 -0.61237243569579447 
		endloop
	endfacet
	facet normal 0.99691733373312785 0.078459095727847206 0. 
		outer loop
			vertex 2.9958886042637216 0.15700786872883149 0.61237243569579447 
			vertex 2.9958886042637216 0.15700786872883149 -0.61237243569579447 
			vertex 2.9835656861048196 0.31358538980296036 -0.61237243569579447 
		endloop
	endfacet
	facet normal -0.99144486137381083 -0.13052619222004841 0. 
		outer loop
			vertex 2.9835656861048196 0.31358538980296036 0.61237243569579447 
			vertex 2.9630650217854133 0.46930339512069263 0.61237243569579447 
			vertex 2.9630650217854133 0.46930339512069263 -0.61237243569579447 
		endloop
	endfacet
	facet normal 0.99144486137381083 0.13052619222004841 0. 
		outer loop
			vertex 2.9835656861048196 0.31358538980296036 0.61237243569579447 
			vertex 2.9835656861048196 0.31358538980296036 -0.61237243569579447 
			vertex 2.9630650217854133 0.46930339512069263 -0.61237243569579447 
		endloop
	endfacet
	facet normal -0.98325490756395462 -0.18223552549214742 0. 
		outer loop
			vertex 2.9630650217854133 0.46930339512069263 0.61237243569579447 
			vertex 2.9344428022014171 0.62373507245327797 0.61237243569579447 
			vertex 2.9344428022014171 0.62373507245327797 -0.61237243569579447 
		endloop
	endfacet
	facet normal 0.98325490756395462 0.18223552549214742 0. 
		outer loop
			vertex 2.9630650217854133 0.46930339512069263 0.61237243569579447 
			vertex 2.9630650217854133 0.46930339512069263 -0.61237243569579447 
			vertex 2.9344428022014171 0.62373507245327797 -0.61237243569579447 
		endloop
	endfacet
	facet normal -0.97236992039767667 -0.23344536385590525 0. 
		outer loop
			vertex 2.9344428022014171 0.62373507245327797 0.61237243569579447 
			vertex 2.897777478867205 0.77645713530756222 0.61237243569579447 
			vertex 2.897777478867205 0.77645713530756222 -0.61237243569579447 
		endloop
	endfacet
	facet normal 0.97236992039767667 0.23344536385590525 0. 
		outer loop
			vertex 2.9344428022014171 0.62373507245327797 0.61237243569579447 
			vertex 2.9344428022014171 0.62373507245327797 -0.61237243569579447 
			vertex 2.897777478867205 0.77645713530756222 -0.61237243569579447 
		endloop
	endfacet
	facet normal -0.95881973486819216 -0.28401534470392514 0. 
		outer loop
			vertex 2.897777478867205 0.77645713530756222 0.61237243569579447 
			vertex 2.8531695488854605 0.92705098312484213 0.61237243569579447 
			vertex 2.8531695488854605 0.92705098312484213 -0.61237243569579447 
		endloop
	endfacet
	facet normal 0.95881973486819216 0.28401534470392514 0. 
		outer loop
			vertex 2.897777478867205 0.77645713530756222 0.61237243569579447 
			vertex 2.897777478867205 0.77645713530756222 -0.61237243569579447 
			vertex 2.8531695488854605 0.92705098312484213 -0.61237243569579447 
		endloop
	endfacet
	facet normal -0.94264149109217887 -0.33380685923376924 0. 
		outer loop
			vertex 2.8531695488854605 0.92705098312484213 0.61237243569579447 
			vertex 2.8007412794916053 1.0751038486359006 0.61237243569579447 
			vertex 2.8007412794916053 1.0751038486359006 -0.61237243569579447 
		endloop
	endfacet
	facet normal 0.94264149109217887 0.33380685923376924 0. 
		outer loop
			vertex 2.8531695488854605 0.92705098312484213 0.61237243569579447 
			vertex 2.8531695488854605 0.92705098312484213 -0.61237243569579447 
			vertex 2.8007412794916053 1.0751038486359006 -0.61237243569579447 
		endloop
	endfacet
	facet normal -0.92387953251128674 -0.38268343236508995 0. 
		outer loop
			vertex 2.8007412794916053 1.0751038486359006 0.61237243569579447 
			vertex 2.7406363729278027 1.2202099292274005 0.61237243569579447 
			vertex 2.7406363729278027 1.2202099292274005 -0.61237243569579447 
		endloop
	endfacet
	facet normal 0.92387953251128674 0.38268343236508995 0. 
		outer loop
			vertex 2.8007412794916053 1.0751038486359006 0.61237243569579447 
			vertex 2.8007412794916053 1.0751038486359006 -0.61237243569579447 
			vertex 2.7406363729278027 1.2202099292274005 -0.61237243569579447 
		endloop
	endfacet
	facet normal -0.90258528434986107 -0.43051109680829397 0. 
		outer loop
			vertex 2.7406363729278027 1.2202099292274005 0.61237243569579447 
			vertex 2.6730195725651038 1.3619714992186402 0.61237243569579447 
			vertex 2.6730195725651038 1.3619714992186402 -0.61237243569579447 
		endloop
	endfacet
	facet normal 0.90258528434986107 0.43051109680829397 0. 
		outer loop
			vertex 2.7406363729278027 1.2202099292274005 0.61237243569579447 
			vertex 2.7406363729278027 1.2202099292274005 -0.61237243569579447 
			vertex 2.6730195725651038 1.3619714992186402 -0.61237243569579447 
		endloop
	endfacet
	facet normal -0.87881711266196494 -0.47715876025960952 0. 
		outer loop
			vertex 2.6730195725651038 1.3619714992186402 0.61237243569579447 
			vertex 2.598076211353316 1.4999999999999998 0.61237243569579447 
			vertex 2.598076211353316 1.4999999999999998 0. 
		endloop
	endfacet
	facet normal 0.87881711266196494 0.47715876025960952 0. 
		outer loop
			vertex 2.598076211353316 1.4999999999999998 0. 
			vertex 2.6730195725651038 1.3619714992186402 -0.61237243569579447 
			vertex 2.598076211353316 1.4999999999999998 -0.61237243569579447 
		endloop
	endfacet
	facet normal -0.87881711266196494 -0.47715876025960952 -0. 
		outer loop
			vertex 2.6730195725651038 1.3619714992186402 0.61237243569579447 
			vertex 2.598076211353316 1.4999999999999998 0. 
			vertex 2.6730195725651038 1.3619714992186402 -0.61237243569579447 
		endloop
	endfacet
	facet normal 0.51335848098459103 0.65091247139207997 0.55926382377858852 
		outer loop
			vertex 1.7320508075688774 0.99999999999999989 -0.61237243569579447 
			vertex 1.7820130483767358 0.9079809994790935 -0.55113519212621509 
			vertex 3. 0. -0.61237243569579447 
		endloop
	endfacet
	facet normal 0.49705759260048604 0.62625738322789304 0.60061255364066546 
		outer loop
			vertex 1.7820130483767358 0.9079809994790935 -0.55113519212621509 
			vertex 1.8270909152852017 0.81347328615160031 -0.4898979485566356 
			vertex 3. 0. -0.61237243569579447 
		endloop
	endfacet
	facet normal 0.48402055225497592 0.6023165182138609 0.63477469773260498 
		outer loop
			vertex 1.8270909152852017 0.81347328615160031 -0.4898979485566356 
			vertex 1.8671608529944035 0.71673589909060043 -0.42866070498705611 
			vertex 3. 0. -0.61237243569579447 
		endloop
	endfacet
	facet normal 0.47404120616542844 0.57927985808986893 0.66311370131268355 
		outer loop
			vertex 1.8671608529944035 0.71673589909060043 -0.42866070498705611 
			vertex 1.9021130325903071 0.61803398874989479 -0.36742346141747673 
			vertex 3. 0. -0.61237243569579447 
		endloop
	endfacet
	facet normal 0.4668637626567943 0.55716887015579108 0.68673217286454535 
		outer loop
			vertex 1.9021130325903071 0.61803398874989479 -0.36742346141747673 
			vertex 1.9318516525781366 0.51763809020504148 -0.30618621784789729 
			vertex 3. 0. -0.61237243569579447 
		endloop
	endfacet
	facet normal 0.46222738832010118 0.53590491436586729 0.70650673333330016 
		outer loop
			vertex 1.9318516525781366 0.51763809020504148 -0.30618621784789729 
			vertex 1.9562952014676114 0.41582338163551863 -0.2449489742783178 
			vertex 3. 0. -0.61237243569579447 
		endloop
	endfacet
	facet normal 0.45988999078395604 0.51535158676564485 0.72312788522837712 
		outer loop
			vertex 1.9562952014676114 0.41582338163551863 -0.2449489742783178 
			vertex 1.9753766811902755 0.31286893008046174 -0.18371173070873836 
			vertex 3. 0. -0.61237243569579447 
		endloop
	endfacet
	facet normal 0.45963985648475508 0.4953392231497688 0.73713652489892068 
		outer loop
			vertex 1.9753766811902755 0.31286893008046174 -0.18371173070873836 
			vertex 1.9890437907365466 0.20905692653530691 -0.1224744871391589 
			vertex 3. 0. -0.61237243569579447 
		endloop
	endfacet
	facet normal 0.46130073822538592 0.47567755996440381 0.74895426286190869 
		outer loop
			vertex 1.9890437907365466 0.20905692653530691 -0.1224744871391589 
			vertex 1.9972590695091477 0.10467191248588766 -0.06123724356957945 
			vertex 3. 0. -0.61237243569579447 
		endloop
	endfacet
	facet normal -0.46473383669584212 -0.45616045105846453 -0.75890717740715863 
		outer loop
			vertex 2. 0. 0. 
			vertex 1.9972590695091477 0.10467191248588766 -0.06123724356957945 
			vertex 3. 0. -0.61237243569579447 
		endloop
	endfacet
	facet normal 0.46473383669584212 0.45616045105846453 -0.75890717740715863 
		outer loop
			vertex 2. 0. 0. 
			vertex 1.9972590695091477 0.10467191248588766 0.06123724356957945 
			vertex 3. 0. 0.61237243569579447 
		endloop
	endfacet
	facet normal 0.46130073822538581 0.47567755996440381 -0.7489542628619088 
		outer loop
			vertex 1.9972590695091477 0.10467191248588766 0.06123724356957945 
			vertex 1.9890437907365466 0.20905692653530691 0.1224744871391589 
			vertex 3. 0. 0.61237243569579447 
		endloop
	endfacet
	facet normal 0.45963985648475508 0.49533922314976869 -0.73713652489892068 
		outer loop
			vertex 1.9890437907365466 0.20905692653530691 0.1224744871391589 
			vertex 1.9753766811902755 0.31286893008046174 0.18371173070873836 
			vertex 3. 0. 0.61237243569579447 
		endloop
	endfacet
	facet normal 0.45988999078395615 0.51535158676564485 -0.72312788522837701 
		outer loop
			vertex 1.9753766811902755 0.31286893008046174 0.18371173070873836 
			vertex 1.9562952014676114 0.41582338163551863 0.2449489742783178 
			vertex 3. 0. 0.61237243569579447 
		endloop
	endfacet
	facet normal 0.46222738832010107 0.53590491436586729 -0.70650673333330016 
		outer loop
			vertex 1.9562952014676114 0.41582338163551863 0.2449489742783178 
			vertex 1.9318516525781366 0.51763809020504148 0.30618621784789729 
			vertex 3. 0. 0.61237243569579447 
		endloop
	endfacet
	facet normal 0.46686376265679425 0.55716887015579108 -0.68673217286454535 
		outer loop
			vertex 1.9318516525781366 0.51763809020504148 0.30618621784789729 
			vertex 1.9021130325903071 0.61803398874989479 0.36742346141747673 
			vertex 3. 0. 0.61237243569579447 
		endloop
	endfacet
	facet normal 0.4740412061654285 0.57927985808986893 -0.66311370131268366 
		outer loop
			vertex 1.9021130325903071 0.61803398874989479 0.36742346141747673 
			vertex 1.8671608529944035 0.71673589909060043 0.42866070498705611 
			vertex 3. 0. 0.61237243569579447 
		endloop
	endfacet
	facet normal 0.48402055225497592 0.6023165182138609 -0.63477469773260486 
		outer loop
			vertex 1.8671608529944035 0.71673589909060043 0.42866070498705611 
			vertex 1.8270909152852017 0.81347328615160031 0.4898979485566356 
			vertex 3. 0. 0.61237243569579447 
		endloop
	endfacet
	facet normal 0.49705759260048604 0.62625738322789304 -0.60061255364066546 
		outer loop
			vertex 1.8270909152852017 0.81347328615160031 0.4898979485566356 
			vertex 1.7820130483767358 0.9079809994790935 0.55113519212621509 
			vertex 3. 0. 0.61237243569579447 
		endloop
	endfacet
	facet normal 0.51335848098459091 0.65091247139207997 -0.55926382377858841 
		outer loop
			vertex 1.7820130483767358 0.9079809994790935 0.55113519212621509 
			vertex 1.7320508075688774 0.99999999999999989 0.61237243569579447 
			vertex 3. 0. 0.61237243569579447 
		endloop
	endfacet
	facet normal -0.49999999999999994 0.86602540378443871 0. 
		outer loop
			vertex 1.7320508075688774 0.99999999999999989 -0.61237243569579447 
			vertex 2.598076211353316 1.4999999999999998 0. 
			vertex 2.598076211353316 1.4999999999999998 -0.61237243569579447 
		endloop
	endfacet
	facet normal -0.49999999999999994 0.86602540378443871 0. 
		outer loop
			vertex 1.7320508075688774 0.99999999999999989 0.61237243569579447 
			vertex 2.598076211353316 1.4999999999999998 0.61237243569579447 
			vertex 2.598076211353316 1.4999999999999998 0. 
		endloop
	endfacet
	facet normal -0.17439108304757545 -0.6274134571663198 -0.75890717740715841 
		outer loop
			vertex 1.7320508075688774 0.99999999999999989 0.61237243569579447 
			vertex 1.6773411358908481 1.0892780700300539 0.55113519212621498 
			vertex 2.598076211353316 1.4999999999999998 0. 
		endloop
	endfacet
	facet normal -0.16165937810549857 -0.64259922005206094 -0.74895426286190958 
		outer loop
			vertex 1.6773411358908481 1.0892780700300539 0.55113519212621498 
			vertex 1.6180339887498949 1.1755705045849463 0.4898979485566356 
			vertex 2.598076211353316 1.4999999999999998 0. 
		endloop
	endfacet
	facet normal -0.15039018073274643 -0.65879627898092763 -0.73713652489891979 
		outer loop
			vertex 1.6180339887498949 1.1755705045849463 0.4898979485566356 
			vertex 1.5542919229139418 1.2586407820996748 0.42866070498705611 
			vertex 2.598076211353316 1.4999999999999998 0. 
		endloop
	endfacet
	facet normal -0.14060062158227496 -0.67625256141164669 -0.72312788522837712 
		outer loop
			vertex 1.5542919229139418 1.2586407820996748 0.42866070498705611 
			vertex 1.4862896509547887 1.3382612127177163 0.36742346141747667 
			vertex 2.598076211353316 1.4999999999999998 0. 
		endloop
	endfacet
	facet normal -0.13234820342720854 -0.6952209640138155 -0.70650673333330027 
		outer loop
			vertex 1.4862896509547887 1.3382612127177163 0.36742346141747667 
			vertex 1.4142135623730951 1.4142135623730949 0.30618621784789718 
			vertex 2.598076211353316 1.4999999999999998 0. 
		endloop
	endfacet
	facet normal -0.12573144348927714 -0.71595427708118553 -0.68673217286454524 
		outer loop
			vertex 1.4142135623730951 1.4142135623730949 0.30618621784789718 
			vertex 1.3382612127177165 1.4862896509547883 0.24494897427831774 
			vertex 2.598076211353316 1.4999999999999998 0. 
		endloop
	endfacet
	facet normal -0.12089179793494317 -0.73869167608918518 -0.66311370131268366 
		outer loop
			vertex 1.3382612127177165 1.4862896509547883 0.24494897427831774 
			vertex 1.258640782099675 1.5542919229139416 0.18371173070873836 
			vertex 2.598076211353316 1.4999999999999998 0. 
		endloop
	endfacet
	facet normal -0.11801583509965233 -0.76363168201968279 -0.63477469773260631 
		outer loop
			vertex 1.258640782099675 1.5542919229139416 0.18371173070873836 
			vertex 1.1755705045849463 1.6180339887498949 0.12247448713915887 
			vertex 2.598076211353316 1.4999999999999998 0. 
		endloop
	endfacet
	facet normal -0.11733581072201064 -0.79088359948316678 -0.60061255364066291 
		outer loop
			vertex 1.1755705045849463 1.6180339887498949 0.12247448713915887 
			vertex 1.0892780700300544 1.6773411358908479 0.06123724356957938 
			vertex 2.598076211353316 1.4999999999999998 0. 
		endloop
	endfacet
	facet normal -0.11912525008480647 -0.82038597635794797 -0.55926382377858908 
		outer loop
			vertex 1.0892780700300544 1.6773411358908479 0.06123724356957938 
			vertex 1.0000000000000002 1.7320508075688772 0. 
			vertex 2.598076211353316 1.4999999999999998 0. 
		endloop
	endfacet
	facet normal -0.1191252500848065 -0.82038597635794808 0.55926382377858919 
		outer loop
			vertex 1.0000000000000002 1.7320508075688772 0. 
			vertex 1.0892780700300544 1.6773411358908479 -0.06123724356957938 
			vertex 2.598076211353316 1.4999999999999998 0. 
		endloop
	endfacet
	facet normal -0.11733581072201064 -0.79088359948316678 0.60061255364066302 
		outer loop
			vertex 1.0892780700300544 1.6773411358908479 -0.06123724356957938 
			vertex 1.1755705045849463 1.6180339887498949 -0.12247448713915887 
			vertex 2.598076211353316 1.4999999999999998 0. 
		endloop
	endfacet
	facet normal -0.11801583509965229 -0.76363168201968279 0.6347746977326062 
		outer loop
			vertex 1.1755705045849463 1.6180339887498949 -0.12247448713915887 
			vertex 1.258640782099675 1.5542919229139416 -0.18371173070873836 
			vertex 2.598076211353316 1.4999999999999998 0. 
		endloop
	endfacet
	facet normal -0.12089179793494317 -0.73869167608918529 0.66311370131268377 
		outer loop
			vertex 1.258640782099675 1.5542919229139416 -0.18371173070873836 
			vertex 1.3382612127177165 1.4862896509547883 -0.24494897427831774 
			vertex 2.598076211353316 1.4999999999999998 0. 
		endloop
	endfacet
	facet normal -0.12573144348927712 -0.71595427708118553 0.68673217286454524 
		outer loop
			vertex 1.3382612127177165 1.4862896509547883 -0.24494897427831774 
			vertex 1.4142135623730951 1.4142135623730949 -0.30618621784789718 
			vertex 2.598076211353316 1.4999999999999998 0. 
		endloop
	endfacet
	facet normal -0.13234820342720854 -0.6952209640138155 0.70650673333330027 
		outer loop
			vertex 1.4142135623730951 1.4142135623730949 -0.30618621784789718 
			vertex 1.4862896509547887 1.3382612127177163 -0.36742346141747667 
			vertex 2.598076211353316 1.4999999999999998 0. 
		endloop
	endfacet
	facet normal -0.14060062158227496 -0.6762525614116468 0.72312788522837712 
		outer loop
			vertex 1.4862896509547887 1.3382612127177163 -0.36742346141747667 
			vertex 1.5542919229139418 1.2586407820996748 -0.42866070498705611 
			vertex 2.598076211353316 1.4999999999999998 0. 
		endloop
	endfacet
	facet normal -0.1503901807327464 -0.65879627898092763 0.73713652489891979 
		outer loop
			vertex 1.5542919229139418 1.2586407820996748 -0.42866070498705611 
			vertex 1.6180339887498949 1.1755705045849463 -0.4898979485566356 
			vertex 2.598076211353316 1.4999999999999998 0. 
		endloop
	endfacet
	facet normal -0.16165937810549852 -0.64259922005206083 0.74895426286190958 
		outer loop
			vertex 1.6180339887498949 1.1755705045849463 -0.4898979485566356 
			vertex 1.6773411358908481 1.0892780700300539 -0.55113519212621498 
			vertex 2.598076211353316 1.4999999999999998 0. 
		endloop
	endfacet
	facet normal -0.17439108304757547 -0.62741345716631991 0.75890717740715841 
		outer loop
			vertex 1.6773411358908481 1.0892780700300539 -0.55113519212621498 
			vertex 1.7320508075688774 0.99999999999999989 -0.61237243569579447 
			vertex 2.598076211353316 1.4999999999999998 0. 
		endloop
	endfacet
	facet normal -0. 1. 0. 
		outer loop
			vertex 2. 0. 0. 
			vertex 3. 0. 0.61237243569579447 
			vertex 3. 0. -0.61237243569579447 
		endloop
	endfacet
	facet normal 0. 0. 0.99999999999999989 
		outer loop
			vertex 1.7320508075688774 0.99999999999999989 0.61237243569579447 
			vertex 3. 0. 0.61237243569579447 
			vertex 2.9958886042637216 0.15700786872883149 0.61237243569579447 
		endloop
	endfacet
	facet normal 0. 0. 1. 
		outer loop
			vertex 1.7320508075688774 0.99999999999999989 0.61237243569579447 
			vertex 2.9958886042637216 0.15700786872883149 0.61237243569579447 
			vertex 2.9835656861048196 0.31358538980296036 0.61237243569579447 
		endloop
	endfacet
	facet normal 0. 0. 1. 
		outer loop
			vertex 1.7320508075688774 0.99999999999999989 0.61237243569579447 
			vertex 2.9835656861048196 0.31358538980296036 0.61237243569579447 
			vertex 2.9630650217854133 0.46930339512069263 0.61237243569579447 
		endloop
	endfacet
	facet normal 0. 0. 1. 
		outer loop
			vertex 1.7320508075688774 0.99999999999999989 0.61237243569579447 
			vertex 2.9630650217854133 0.46930339512069263 0.61237243569579447 
			vertex 2.9344428022014171 0.62373507245327797 0.61237243569579447 
		endloop
	endfacet
	facet normal 0. 0. 1. 
		outer loop
			vertex 1.7320508075688774 0.99999999999999989 0.61237243569579447 
			vertex 2.9344428022014171 0.62373507245327797 0.61237243569579447 
			vertex 2.897777478867205 0.77645713530756222 0.61237243569579447 
		endloop
	endfacet
	facet normal 0. 0. 1. 
		outer loop
			vertex 1.7320508075688774 0.99999999999999989 0.61237243569579447 
			vertex 2.897777478867205 0.77645713530756222 0.61237243569579447 
			vertex 2.8531695488854605 0.92705098312484213 0.61237243569579447 
		endloop
	endfacet
	facet normal -0. 0. 1. 
		outer loop
			vertex 1.7320508075688774 0.99999999999999989 0.61237243569579447 
			vertex 2.8531695488854605 0.92705098312484213 0.61237243569579447 
			vertex 2.8007412794916053 1.0751038486359006 0.61237243569579447 
		endloop
	endfacet
	facet normal 0. 0. 1. 
		outer loop
			vertex 1.7320508075688774 0.99999999999999989 0.61237243569579447 
			vertex 2.8007412794916053 1.0751038486359006 0.61237243569579447 
			vertex 2.7406363729278027 1.2202099292274005 0.61237243569579447 
		endloop
	endfacet
	facet normal 0. 0. 1. 
		outer loop
			vertex 1.7320508075688774 0.99999999999999989 0.61237243569579447 
			vertex 2.7406363729278027 1.2202099292274005 0.61237243569579447 
			vertex 2.6730195725651038 1.3619714992186402 0.61237243569579447 
		endloop
	endfacet
	facet normal 0. 0. 1. 
		outer loop
			vertex 1.7320508075688774 0.99999999999999989 0.61237243569579447 
			vertex 2.6730195725651038 1.3619714992186402 0.61237243569579447 
			vertex 2.598076211353316 1.4999999999999998 0.61237243569579447 
		endloop
	endfacet
	facet normal 0. 0. 0.99999999999999989 
		outer loop
			vertex 1.7320508075688774 0.99999999999999989 -0.61237243569579447 
			vertex 3. 0. -0.61237243569579447 
			vertex 2.9958886042637216 0.15700786872883149 -0.61237243569579447 
		endloop
	endfacet
	facet normal 0. 0. 1. 
		outer loop
			vertex 1.7320508075688774 0.99999999999999989 -0.61237243569579447 
			vertex 2.9958886042637216 0.15700786872883149 -0.61237243569579447 
			vertex 2.9835656861048196 0.31358538980296036 -0.61237243569579447 
		endloop
	endfacet
	facet normal 0. 0. 1. 
		outer loop
			vertex 1.7320508075688774 0.99999999999999989 -0.61237243569579447 
			vertex 2.9835656861048196 0.31358538980296036 -0.61237243569579447 
			vertex 2.9630650217854133 0.46930339512069263 -0.61237243569579447 
		endloop
	endfacet
	facet normal 0. 0. 1. 
		outer loop
			vertex 1.7320508075688774 0.99999999999999989 -0.61237243569579447 
			vertex 2.9630650217854133 0.46930339512069263 -0.61237243569579447 
			vertex 2.9344428022014171 0.62373507245327797 -0.61237243569579447 
		endloop
	endfacet
	facet normal 0. 0. 1. 
		outer loop
			vertex 1.7320508075688774 0.99999999999999989 -0.61237243569579447 
			vertex 2.9344428022014171 0.62373507245327797 -0.61237243569579447 
			vertex 2.897777478867205 0.77645713530756222 -0.61237243569579447 
		endloop
	endfacet
	facet normal 0. 0. 1. 
		outer loop
			vertex 1.7320508075688774 0.99999999999999989 -0.61237243569579447 
			vertex 2.897777478867205 0.77645713530756222 -0.61237243569579447 
			vertex 2.8531695488854605 0.92705098312484213 -0.61237243569579447 
		endloop
	endfacet
	facet normal -0. 0. 1. 
		outer loop
			vertex 1.7320508075688774 0.99999999999999989 -0.61237243569579447 
			vertex 2.8531695488854605 0.92705098312484213 -0.61237243569579447 
			vertex 2.8007412794916053 1.0751038486359006 -0.61237243569579447 
		endloop
	endfacet
	facet normal 0. 0. 1. 
		outer loop
			vertex 1.7320508075688774 0.99999999999999989 -0.61237243569579447 
			vertex 2.8007412794916053 1.0751038486359006 -0.61237243569579447 
			vertex 2.7406363729278027 1.2202099292274005 -0.61237243569579447 
		endloop
	endfacet
	facet normal 0. 0. 1. 
		outer loop
			vertex 1.7320508075688774 0.99999999999999989 -0.61237243569579447 
			vertex 2.7406363729278027 1.2202099292274005 -0.61237243569579447 
			vertex 2.6730195725651038 1.3619714992186402 -0.61237243569579447 
		endloop
	endfacet
	facet normal 0. 0. 1. 
		outer loop
			vertex 1.7320508075688774 0.99999999999999989 -0.61237243569579447 
			vertex 2.6730195725651038 1.3619714992186402 -0.61237243569579447 
			vertex 2.598076211353316 1.4999999999999998 -0.61237243569579447 
		endloop
	endfacet
endsolid tubularVersatileBlock_6_10_1_2_3_fixed